<?xml version="1.0" encoding="UTF-8"?>
<svg width="216px" height="35px" viewBox="0 0 216 35" version="1.1" xmlns="http://www.w3.org/2000/svg" xmlns:xlink="http://www.w3.org/1999/xlink">
    <title>Techtic_logo</title>
    <g id="Page-1" stroke="none" stroke-width="1" fill="none" fill-rule="evenodd">
        <g id="Techtic_logo" transform="translate(0.000000, 0.985476)" fill="#000000" fill-rule="nonzero">
            <path d="M0,7.61452378 L9.191,7.61452378 L9.191,33.1635238 L18.515,33.1635238 L18.515,7.61452378 L27.706,7.61452378 L27.706,0.414523782 L0,0.414523782 L0,7.61452378 Z M42.61,19.9045238 L50.332,19.9045238 L50.332,12.7145238 L42.61,12.7145238 L42.61,7.61452378 L57.661,7.61452378 L57.661,0.414523782 L33.287,0.414523782 L33.287,33.1635238 L57.987,33.1635238 L57.987,25.9635238 L42.61,25.9635238 L42.61,19.9095238 L42.61,19.9045238 Z M136.191,7.61452378 L145.382,7.61452378 L145.382,33.1635238 L154.705,33.1635238 L154.705,7.61452378 L163.9,7.61452378 L163.9,0.414523782 L136.2,0.414523782 L136.2,7.61452378 L136.191,7.61452378 Z M170.021,33.1585238 L179.345,33.1585238 L179.345,0.421523782 L170.021,0.421523782 L170.021,33.1635238 L170.021,33.1585238 Z M214.9,22.2315238 C210.643,24.2585238 207.831,25.5985238 203.816,25.5985238 C197.644,25.5985238 193.334,21.9585238 193.334,16.7465238 C193.334,11.5885238 197.72,7.98552378 204,7.98552378 C207.708371,8.09178003 211.324421,9.16635628 214.489,11.1025238 L215.589,11.7135238 L215.589,3.07752378 L215.23,2.86452378 C211.626126,0.882743232 207.559315,-0.103066662 203.448,0.0085237823 C190.537,0.0085237823 183.782,8.49852378 183.782,16.8835238 C183.782,24.9225238 189.748,33.5755238 202.848,33.5755238 C207.292503,33.6436739 211.676558,32.5399862 215.559,30.3755238 L215.959,30.1755238 L215.959,21.7275238 L214.9,22.2315238 Z M98.146,33.1635238 L107.469,33.1635238 L107.469,0.421523782 L98.146,0.421523782 L98.146,33.1635238 Z M121.691,12.7145238 L113.091,12.7145238 L107.5,19.8785238 L121.688,19.8785238 L121.688,33.1635238 L131.012,33.1635238 L131.012,0.421523782 L121.688,0.421523782 L121.688,12.7145238 L121.691,12.7145238 Z M81.205,25.5985238 C75.033,25.5985238 70.723,21.9585238 70.723,16.7465238 C70.723,11.5885238 75.109,7.98552378 81.389,7.98552378 C85.0973706,8.09178003 88.7134213,9.16635628 91.878,11.1025238 L92.978,11.7135238 L92.978,3.07752378 L92.619,2.86452378 C89.0151259,0.882743232 84.9483149,-0.103066662 80.837,0.0085237823 C67.926,0.0085237823 61.171,8.49852378 61.171,16.8835238 C61.171,24.9225238 67.137,33.5755238 80.237,33.5755238 C84.6815034,33.6436739 89.0655578,32.5399862 92.948,30.3755238 L93.348,30.1755238 L93.348,21.7275238 L92.292,22.2275238 C88.032,24.2585238 85.22,25.5985238 81.205,25.5985238 Z" id="Techtic_logo.svg"></path>
        </g>
    </g>
</svg>