<svg width="34" height="42" viewBox="0 0 34 42" fill="none" xmlns="http://www.w3.org/2000/svg">
<path fill-rule="evenodd" clip-rule="evenodd" d="M11.125 1C11.25 1 11.4219 1.04687 11.5156 1.10156C11.6016 1.14844 12.1094 1.92187 13.6172 4.4375L14.1094 4.27344C14.375 4.1875 14.9922 4.04688 15.4766 3.96094C15.9531 3.88281 16.7031 3.8125 17.1328 3.8125C17.5625 3.8125 18.3125 3.88281 18.7969 3.96094C19.2734 4.04688 19.8906 4.1875 20.6484 4.4375L21.6172 2.8125C22.1562 1.92188 22.6641 1.14844 22.75 1.09375C22.8438 1.04688 23.0234 1 23.1484 1C23.3203 1 23.4375 1.07031 23.5859 1.25C23.75 1.45312 23.7813 1.57031 23.75 1.78125C23.7266 1.9375 23.3516 2.66406 22.8438 3.5C22.0469 4.82812 21.9844 4.95312 22.1094 5.04688C22.1875 5.10156 22.5703 5.35156 22.9531 5.60156C23.3359 5.85938 23.9688 6.35938 24.3516 6.71094C24.7344 7.07031 25.2656 7.66406 25.5391 8.03125C25.8125 8.39844 26.2266 9.0625 26.4609 9.51562C26.6953 9.96875 26.9922 10.6484 27.1172 11.0391C27.25 11.4219 27.4062 12.0625 27.4766 12.4453C27.5469 12.8281 27.6094 13.4688 27.625 13.8672C27.6406 14.5625 27.6328 14.5938 27.2109 15.0234H7.05469L6.84375 14.8047C6.63281 14.6016 6.625 14.5547 6.64062 13.9062C6.64844 13.5312 6.70312 12.9766 6.75 12.6797C6.79688 12.3828 6.92188 11.8125 7.03125 11.4297C7.13281 11.0469 7.39844 10.3594 7.60938 9.90625C7.82813 9.45312 8.20312 8.78906 8.4375 8.42188C8.6875 8.04688 9.23438 7.39844 9.70312 6.9375C10.2187 6.42188 10.8125 5.92969 11.2734 5.625C11.6797 5.35938 12.0781 5.10156 12.1484 5.04688C12.2734 4.95312 12.2109 4.8125 11.3906 3.42188C10.8906 2.57812 10.4844 1.80469 10.4844 1.6875C10.4766 1.5625 10.5625 1.38281 10.6875 1.24219C10.8281 1.07812 10.9688 1 11.125 1ZM14.3984 5.64844C14.0312 5.76562 13.4141 6.01562 13.0312 6.21094C12.6484 6.39844 12.1562 6.6875 11.9375 6.84375C11.7266 7 11.2891 7.35156 10.9688 7.63281C10.6484 7.91406 10.1641 8.44531 9.89062 8.8125C9.61719 9.17969 9.25781 9.74219 9.09375 10.0625C8.92188 10.3828 8.6875 10.8984 8.57812 11.1953C8.46094 11.4922 8.30469 12.0625 8.21875 12.4453C8.14062 12.8281 8.07031 13.2656 8.07031 13.4062V13.6562H26.1953C26.1953 13.2656 26.125 12.8281 26.0469 12.4453C25.9609 12.0625 25.8047 11.4922 25.6875 11.1953C25.5781 10.8984 25.3438 10.3828 25.1719 10.0625C25.0078 9.74219 24.6484 9.17969 24.375 8.8125C24.1016 8.44531 23.6172 7.91406 23.2969 7.63281C22.9766 7.35156 22.5469 7 22.3281 6.84375C22.1172 6.6875 21.6172 6.39844 21.2344 6.21094C20.8516 6.01562 20.2422 5.76562 19.8906 5.65625C19.5312 5.54688 18.9375 5.39844 18.5625 5.33594C18.1797 5.27344 17.5078 5.21875 17.0547 5.22656C16.6016 5.22656 15.9688 5.28125 15.6484 5.33594C15.3281 5.39844 14.7656 5.53906 14.3984 5.64844ZM3.53906 15.7891C3.94531 15.7969 4.23438 15.8594 4.47656 15.9766C4.67188 16.0703 4.97656 16.2969 5.16406 16.4844C5.35156 16.6719 5.57812 16.9766 5.67188 17.1719C5.84375 17.5234 5.84375 17.5312 5.84375 28.6953L5.64844 29.0781C5.53906 29.2812 5.32031 29.5859 5.16406 29.7422C5.00781 29.8984 4.71094 30.1094 4.5 30.2188C4.23438 30.3516 3.96094 30.4219 3.57812 30.4375C3.17188 30.4609 2.92188 30.4297 2.60156 30.3125C2.33594 30.2109 2.03125 30.0156 1.80469 29.7969C1.59375 29.6016 1.33594 29.2344 1 28.5391V17.6797L1.25781 17.1484C1.42187 16.8047 1.625 16.5312 1.84375 16.3516C2.02344 16.2031 2.35156 16.0078 2.5625 15.9219C2.85938 15.8047 3.09375 15.7734 3.53906 15.7891ZM2.54688 17.6797C2.41406 17.8984 2.40625 18.2656 2.38281 22.9531C2.375 25.875 2.39844 28.1094 2.4375 28.2656C2.47656 28.4141 2.64063 28.6562 2.78906 28.7891C3.01563 28.9922 3.14063 29.0469 3.40625 29.0469C3.59375 29.0469 3.83594 28.9844 3.99219 28.8906C4.125 28.8047 4.29688 28.625 4.35938 28.5C4.46094 28.2969 4.47656 27.5469 4.46094 22.9844L4.4375 17.7031C3.89844 17.2109 3.79688 17.1719 3.48438 17.1719C3.26563 17.1719 3.02344 17.2344 2.89844 17.3125C2.78125 17.3828 2.625 17.5469 2.54688 17.6797ZM7.0625 15.7656H27.2109L27.6406 16.1406L27.6641 23.3203C27.6719 27.8203 27.6562 30.6953 27.6016 31.0391C27.5625 31.3359 27.4297 31.7969 27.3047 32.0547C27.1797 32.3125 26.9062 32.7031 26.6953 32.9141C26.4844 33.1328 26.1406 33.4062 25.9219 33.5312C25.7109 33.6484 25.3359 33.7969 25.1016 33.8594C24.8672 33.9219 24.3984 33.9688 23.4609 33.9688L23.4375 36.3672C23.4219 38.6172 23.4062 38.8047 23.25 39.2031C23.1562 39.4375 22.9141 39.8203 22.7031 40.0547C22.4453 40.3438 22.1562 40.5547 21.7812 40.7344C21.3203 40.9531 21.1484 41 20.6719 41C20.2031 41 20.0078 40.9609 19.5781 40.7656C19.2656 40.625 18.8984 40.375 18.6797 40.1562C18.4687 39.9531 18.2109 39.5781 17.875 38.8516L17.8359 33.9688H16.4297L16.3906 38.8516L16.1719 39.3203C16.0547 39.5781 15.7969 39.9531 15.5859 40.1562C15.3672 40.375 15 40.625 14.6953 40.7656C14.2656 40.9531 14.0625 41 13.6172 41C13.1875 41 12.9688 40.9531 12.5859 40.7812C12.3125 40.6641 11.9375 40.4219 11.75 40.25C11.5625 40.0859 11.3203 39.7891 11.2109 39.5938C11.0938 39.3984 10.9609 39.0469 10.9062 38.8125C10.8359 38.5234 10.8047 37.6797 10.8047 33.9688H10.2031C9.86719 33.9688 9.39844 33.9219 9.16406 33.8594C8.92969 33.7969 8.5625 33.6484 8.34375 33.5312C8.13281 33.4062 7.78125 33.1328 7.57031 32.9141C7.35938 32.7031 7.08594 32.3125 6.96094 32.0547C6.83594 31.7969 6.70312 31.3359 6.66406 31.0391C6.60938 30.6953 6.59375 27.8047 6.625 16.1406L7.0625 15.7656ZM8.00781 24.1094C8.03125 30.9609 8.03125 31.0469 8.19531 31.3906C8.28125 31.5859 8.47656 31.8594 8.625 32C8.76563 32.1406 9.01562 32.3125 9.16406 32.3906C9.36719 32.4922 9.72656 32.5312 10.6328 32.5625C11.8203 32.6016 11.8359 32.6094 12.0234 32.8203L12.2109 33.0312C12.2109 38.4141 12.2109 38.4688 12.3828 38.8125C12.4844 39.0078 12.6875 39.2422 12.8359 39.3438C12.9844 39.4453 13.2344 39.5391 13.3828 39.5703C13.5312 39.5938 13.7578 39.5938 13.8906 39.5703C14.0156 39.5391 14.25 39.4453 14.3984 39.3438C14.5469 39.2422 14.75 39.0078 14.8438 38.8125C15.0156 38.4688 15.0234 38.4062 15.0234 35.8281C15.0234 33.6406 15.0391 33.1484 15.1406 32.9531C15.2109 32.8125 15.3516 32.6875 15.5078 32.6406C15.6484 32.6016 16.3828 32.5625 17.1328 32.5625C17.8828 32.5625 18.6094 32.6016 18.75 32.6406C18.9141 32.6875 19.0469 32.8125 19.125 32.9531C19.2188 33.1484 19.2422 33.6406 19.2422 35.8281C19.2422 38.4062 19.2422 38.4688 19.4141 38.8125C19.5156 39.0078 19.7188 39.2422 19.8672 39.3438C20.0156 39.4453 20.2422 39.5391 20.375 39.5703C20.5 39.5938 20.7344 39.5938 20.8828 39.5703C21.0312 39.5391 21.2734 39.4453 21.4219 39.3438C21.5703 39.25 21.7734 39.0078 21.875 38.8125C22.0547 38.4688 22.0547 38.4453 22.0547 35.75V33.0312C22.4297 32.6094 22.4375 32.6016 23.625 32.5625C24.5391 32.5312 24.8906 32.4922 25.1016 32.3906C25.25 32.3125 25.4922 32.1406 25.6406 32C25.7891 31.8594 25.9766 31.5859 26.0703 31.3906C26.2344 31.0469 26.2344 30.9688 26.25 24.1094L26.2578 17.1719H7.98437L8.00781 24.1094ZM30.7891 15.7734C31.1016 15.7734 31.4219 15.8281 31.6875 15.9297C31.9062 16.0156 32.2422 16.2109 32.4297 16.3594C32.6406 16.5391 32.8438 16.8125 33.2656 17.6797V28.5469L33.0547 28.9922C32.9297 29.2422 32.6719 29.6016 32.4688 29.7969C32.2422 30.0156 31.9297 30.2188 31.6641 30.3125C31.3438 30.4297 31.1016 30.4688 30.6875 30.4453C30.3047 30.4219 30.0313 30.3594 29.7656 30.2188C29.5547 30.1172 29.2578 29.8984 29.1016 29.7422C28.9453 29.5859 28.7266 29.2891 28.4219 28.7031L28.3984 23.2734C28.3828 19.0156 28.3984 17.7656 28.4766 17.4922C28.5312 17.2969 28.6875 16.9922 28.8125 16.8125C28.9453 16.6328 29.1875 16.375 29.3594 16.25C29.5312 16.1172 29.8125 15.9609 29.9844 15.8984C30.1562 15.8359 30.5156 15.7813 30.7891 15.7734ZM29.8281 17.7109C29.7891 27.5547 29.8047 28.3047 29.9062 28.5078C29.9688 28.6328 30.1406 28.8125 30.2812 28.8984C30.4297 28.9844 30.6719 29.0547 30.8672 29.0547C31.1328 29.0547 31.25 29 31.4766 28.7969C31.625 28.6562 31.7891 28.4219 31.8281 28.2734C31.8672 28.1094 31.8906 25.8828 31.8828 22.9609C31.8594 18.2812 31.8516 17.9062 31.7188 17.6875C31.6406 17.5547 31.4766 17.3906 31.3516 17.3125C31.2188 17.2422 30.9609 17.1797 30.7656 17.1797C30.4688 17.1797 30.3594 17.2266 30.1172 17.4453L29.8281 17.7109ZM12.6953 8.97656C13.2031 8.97656 13.3359 9 13.4609 9.13281C13.5938 9.25781 13.6172 9.39062 13.625 9.89062C13.625 10.2969 13.5859 10.5521 13.5078 10.6562C13.4219 10.7812 13.2891 10.8125 12.7891 10.8359C12.2656 10.8594 12.1484 10.8438 11.9766 10.7031C11.8047 10.5625 11.7812 10.5 11.7812 9.92188C11.7812 9.42188 11.8125 9.27344 11.9297 9.14062C12.0625 9 12.1719 8.97656 12.6953 8.97656ZM21.5703 8.96875C22.0859 8.96875 22.1953 8.99219 22.3281 9.13281C22.4609 9.27344 22.4844 9.40625 22.4844 9.92188C22.4844 10.5 22.4688 10.5625 22.2891 10.7031C22.125 10.8438 22.0078 10.8594 21.4844 10.8359C20.9844 10.8125 20.8516 10.7812 20.7578 10.6562C20.6849 10.5521 20.6484 10.2969 20.6484 9.89062C20.6484 9.39062 20.6797 9.25781 20.8047 9.13281C20.9375 9 21.0703 8.96875 21.5703 8.96875Z" fill="black" stroke="black" stroke-width="0.1"/>
</svg>
