<svg xmlns="http://www.w3.org/2000/svg" width="43" height="48" viewBox="0 0 43 48">
  <defs>
    <style>
      .cls-1 {
        fill: #250f8d;
        fill-rule: evenodd;
      }
    </style>
  </defs>
  <path id="android.svg" class="cls-1" d="M1844.87,2130.69h25.26l0.1-.78a11.816,11.816,0,0,0-3.25-6.53,12.441,12.441,0,0,0-2.08-1.68l-0.21-.14,1.33-2.83a0.638,0.638,0,0,0,.01-0.41,0.461,0.461,0,0,0-.26-0.27,0.516,0.516,0,0,0-.68.25l-0.01.02-1.29,2.73-0.26-.12a13.584,13.584,0,0,0-5.95-1.3,14.3,14.3,0,0,0-6.2,1.3l-0.25.12-1.3-2.75a0.517,0.517,0,0,0-.94.43l1.33,2.82-0.21.13a11.353,11.353,0,0,0-5.24,8.23Zm1.12-1.6a10.323,10.323,0,0,1,3.35-5.56,13.43,13.43,0,0,1,14.21-1.45l0.05,0.03,0.03,0.04a0.572,0.572,0,0,0,.16.11l0.05,0.02,0.03,0.03a0.09,0.09,0,0,0,.05.01h0.06l0.05,0.04a11.209,11.209,0,0,1,5.06,6.72l0.35,0.92h-23.88Zm-6.73,3.14c-2.11,0-3.26,1.81-3.26,3.95v10.97c0,2.13,1.15,4.13,3.26,4.13s3.57-2,3.57-4.13v-10.97A3.7,3.7,0,0,0,1839.26,2132.23Zm2.88,14.92a3.12,3.12,0,0,1-2.88,3.07,2.882,2.882,0,0,1-2.58-3.07v-10.97a2.725,2.725,0,0,1,2.53-2.89h0.05a2.963,2.963,0,0,1,2.88,2.89v10.97Zm36.86-10.97c0-2.14-1.15-3.95-3.26-3.95a3.7,3.7,0,0,0-3.57,3.95v11.66a3.285,3.285,0,0,0,3.57,3.44c2.12,0,3.26-2,3.26-4.13v-10.97Zm-0.68,10.97a2.882,2.882,0,0,1-2.58,3.07,3.12,3.12,0,0,1-2.88-3.07v-10.97a2.963,2.963,0,0,1,2.88-2.89,2.716,2.716,0,0,1,2.58,2.84v11.02Zm-11.61,8.23h3.42v-23.32h-25.26l-0.1,23.31,3.52,0.01v7.55a2.846,2.846,0,0,0,2.7,3.07,2.884,2.884,0,0,0,2.76-3v-7.62h7.5v7.55a2.893,2.893,0,0,0,2.69,3.07h0.07a2.846,2.846,0,0,0,2.7-3.07v-7.55Zm-0.68-.68v8.23a2.08,2.08,0,0,1-2.02,2.01,2.125,2.125,0,0,1-2.07-2.01v-8.23h-8.88v8.23a2.125,2.125,0,0,1-2.07,2.01,2.08,2.08,0,0,1-2.02-2.01v-8.23h-3.41v-21.95h23.88v21.95h-3.41Zm-12.6-30.17a1.35,1.35,0,1,0,1.34,1.35h0A1.355,1.355,0,0,0,1853.43,2124.53Zm8.14,0a1.35,1.35,0,1,0,1.34,1.35h0a1.349,1.349,0,0,0-1.34-1.35h0Z" transform="translate(-1836 -2118)"/>
</svg>
