<svg width="98" height="98" viewBox="0 0 98 98" fill="none" xmlns="http://www.w3.org/2000/svg">
<circle cx="49" cy="49" r="49" fill="#00AFAA"/>
<path d="M34.5986 56L31.3406 46.712H32.7806L34.4006 51.32L35.4086 54.488H35.4986L36.5066 51.32L38.1626 46.712H39.5486L36.2726 56H34.5986ZM42.126 44.534C41.814 44.534 41.586 44.462 41.442 44.318C41.31 44.162 41.244 43.964 41.244 43.724V43.49C41.244 43.25 41.31 43.058 41.442 42.914C41.586 42.758 41.814 42.68 42.126 42.68C42.438 42.68 42.66 42.758 42.792 42.914C42.936 43.058 43.008 43.25 43.008 43.49V43.724C43.008 43.964 42.936 44.162 42.792 44.318C42.66 44.462 42.438 44.534 42.126 44.534ZM41.406 46.712H42.846V56H41.406V46.712ZM49.398 56.216C48.762 56.216 48.186 56.102 47.67 55.874C47.166 55.646 46.728 55.322 46.356 54.902C45.996 54.47 45.714 53.96 45.51 53.372C45.318 52.772 45.222 52.1 45.222 51.356C45.222 50.624 45.318 49.958 45.51 49.358C45.714 48.758 45.996 48.248 46.356 47.828C46.728 47.396 47.166 47.066 47.67 46.838C48.186 46.61 48.762 46.496 49.398 46.496C50.022 46.496 50.58 46.61 51.072 46.838C51.564 47.066 51.984 47.384 52.332 47.792C52.68 48.188 52.944 48.662 53.124 49.214C53.316 49.766 53.412 50.372 53.412 51.032V51.716H46.734V52.148C46.734 52.544 46.794 52.916 46.914 53.264C47.046 53.6 47.226 53.894 47.454 54.146C47.694 54.398 47.982 54.596 48.318 54.74C48.666 54.884 49.056 54.956 49.488 54.956C50.076 54.956 50.586 54.818 51.018 54.542C51.462 54.266 51.804 53.87 52.044 53.354L53.07 54.092C52.77 54.728 52.302 55.244 51.666 55.64C51.03 56.024 50.274 56.216 49.398 56.216ZM49.398 47.702C49.002 47.702 48.642 47.774 48.318 47.918C47.994 48.05 47.712 48.242 47.472 48.494C47.244 48.746 47.064 49.046 46.932 49.394C46.8 49.73 46.734 50.102 46.734 50.51V50.636H51.864V50.438C51.864 49.61 51.636 48.95 51.18 48.458C50.736 47.954 50.142 47.702 49.398 47.702ZM54.725 46.712H56.129L57.119 50.726L58.109 54.794H58.145L59.279 50.726L60.449 46.712H61.727L62.933 50.726L64.085 54.794H64.121L65.075 50.726L66.083 46.712H67.433L64.967 56H63.185L61.889 51.536L61.079 48.71H61.043L60.251 51.536L58.955 56H57.209L54.725 46.712Z" fill="white"/>
</svg>
