<svg width="98" height="98" viewBox="0 0 98 98" fill="none" xmlns="http://www.w3.org/2000/svg">
<circle cx="49" cy="49" r="49" fill="#00AFAA"/>
<path d="M38.9173 53.488H38.8453C38.2813 54.64 37.3753 55.216 36.1273 55.216C35.5513 55.216 35.0293 55.102 34.5613 54.874C34.0933 54.646 33.6913 54.322 33.3553 53.902C33.0313 53.482 32.7793 52.972 32.5993 52.372C32.4313 51.772 32.3473 51.1 32.3473 50.356C32.3473 49.612 32.4313 48.94 32.5993 48.34C32.7793 47.74 33.0313 47.23 33.3553 46.81C33.6913 46.39 34.0933 46.066 34.5613 45.838C35.0293 45.61 35.5513 45.496 36.1273 45.496C36.7753 45.496 37.3273 45.64 37.7833 45.928C38.2513 46.204 38.6053 46.636 38.8453 47.224H38.9173V41.68H40.3573V55H38.9173V53.488ZM36.5233 53.92C36.8473 53.92 37.1533 53.878 37.4413 53.794C37.7413 53.71 37.9993 53.59 38.2153 53.434C38.4313 53.266 38.5993 53.068 38.7193 52.84C38.8513 52.6 38.9173 52.33 38.9173 52.03V48.574C38.9173 48.322 38.8513 48.088 38.7193 47.872C38.5993 47.644 38.4313 47.452 38.2153 47.296C37.9993 47.14 37.7413 47.02 37.4413 46.936C37.1533 46.84 36.8473 46.792 36.5233 46.792C35.7073 46.792 35.0653 47.05 34.5973 47.566C34.1293 48.07 33.8953 48.736 33.8953 49.564V51.148C33.8953 51.976 34.1293 52.648 34.5973 53.164C35.0653 53.668 35.7073 53.92 36.5233 53.92ZM43.4187 55V45.712H44.8587V47.422H44.9487C45.1167 46.978 45.4167 46.582 45.8487 46.234C46.2807 45.886 46.8747 45.712 47.6307 45.712H48.1887V47.152H47.3427C46.5627 47.152 45.9507 47.302 45.5067 47.602C45.0747 47.89 44.8587 48.256 44.8587 48.7V55H43.4187ZM56.7077 55C56.1677 55 55.7777 54.856 55.5377 54.568C55.3097 54.28 55.1657 53.92 55.1057 53.488H55.0157C54.8117 54.064 54.4757 54.496 54.0077 54.784C53.5397 55.072 52.9817 55.216 52.3337 55.216C51.3497 55.216 50.5817 54.964 50.0297 54.46C49.4897 53.956 49.2197 53.272 49.2197 52.408C49.2197 51.532 49.5377 50.86 50.1737 50.392C50.8217 49.924 51.8237 49.69 53.1797 49.69H55.0157V48.772C55.0157 48.112 54.8357 47.608 54.4757 47.26C54.1157 46.912 53.5637 46.738 52.8197 46.738C52.2557 46.738 51.7817 46.864 51.3977 47.116C51.0257 47.368 50.7137 47.704 50.4617 48.124L49.5977 47.314C49.8497 46.81 50.2517 46.384 50.8037 46.036C51.3557 45.676 52.0517 45.496 52.8917 45.496C54.0197 45.496 54.8957 45.772 55.5197 46.324C56.1437 46.876 56.4557 47.644 56.4557 48.628V53.74H57.5177V55H56.7077ZM52.5677 53.992C52.9277 53.992 53.2577 53.95 53.5577 53.866C53.8577 53.782 54.1157 53.662 54.3317 53.506C54.5477 53.35 54.7157 53.17 54.8357 52.966C54.9557 52.762 55.0157 52.54 55.0157 52.3V50.77H53.1077C52.2797 50.77 51.6737 50.89 51.2897 51.13C50.9177 51.37 50.7317 51.718 50.7317 52.174V52.552C50.7317 53.008 50.8937 53.362 51.2177 53.614C51.5537 53.866 52.0037 53.992 52.5677 53.992ZM67.403 56.026C67.403 56.986 67.025 57.688 66.269 58.132C65.525 58.588 64.403 58.816 62.903 58.816C61.451 58.816 60.407 58.618 59.771 58.222C59.135 57.826 58.817 57.262 58.817 56.53C58.817 56.026 58.949 55.63 59.213 55.342C59.477 55.066 59.837 54.862 60.293 54.73V54.532C59.741 54.268 59.465 53.836 59.465 53.236C59.465 52.768 59.615 52.414 59.915 52.174C60.215 51.922 60.599 51.736 61.067 51.616V51.544C60.515 51.28 60.083 50.902 59.771 50.41C59.471 49.918 59.321 49.348 59.321 48.7C59.321 48.232 59.405 47.8 59.573 47.404C59.741 47.008 59.975 46.672 60.275 46.396C60.587 46.108 60.953 45.886 61.373 45.73C61.805 45.574 62.285 45.496 62.813 45.496C63.473 45.496 64.061 45.616 64.577 45.856V45.694C64.577 45.334 64.661 45.04 64.829 44.812C64.997 44.572 65.273 44.452 65.657 44.452H67.043V45.712H65.279V46.306C65.615 46.594 65.873 46.942 66.053 47.35C66.245 47.746 66.341 48.196 66.341 48.7C66.341 49.168 66.257 49.6 66.089 49.996C65.921 50.392 65.681 50.734 65.369 51.022C65.069 51.298 64.703 51.514 64.271 51.67C63.839 51.826 63.359 51.904 62.831 51.904C62.531 51.904 62.231 51.874 61.931 51.814C61.619 51.898 61.337 52.024 61.085 52.192C60.833 52.348 60.707 52.57 60.707 52.858C60.707 53.134 60.839 53.32 61.103 53.416C61.367 53.512 61.709 53.56 62.129 53.56H64.109C65.261 53.56 66.095 53.782 66.611 54.226C67.139 54.658 67.403 55.258 67.403 56.026ZM66.053 56.134C66.053 55.762 65.909 55.462 65.621 55.234C65.345 55.018 64.847 54.91 64.127 54.91H61.031C60.455 55.174 60.167 55.594 60.167 56.17C60.167 56.578 60.317 56.926 60.617 57.214C60.929 57.502 61.451 57.646 62.183 57.646H63.515C64.319 57.646 64.943 57.52 65.387 57.268C65.831 57.016 66.053 56.638 66.053 56.134ZM62.831 50.752C63.443 50.752 63.929 50.608 64.289 50.32C64.649 50.02 64.829 49.564 64.829 48.952V48.448C64.829 47.836 64.649 47.386 64.289 47.098C63.929 46.798 63.443 46.648 62.831 46.648C62.219 46.648 61.733 46.798 61.373 47.098C61.013 47.386 60.833 47.836 60.833 48.448V48.952C60.833 49.564 61.013 50.02 61.373 50.32C61.733 50.608 62.219 50.752 62.831 50.752Z" fill="white"/>
</svg>
