<svg width="98" height="98" viewBox="0 0 98 98" fill="none" xmlns="http://www.w3.org/2000/svg">
<circle cx="49" cy="49" r="49" fill="#00AFAA"/>
<path d="M33.6023 46.712H35.0423V48.224H35.1143C35.3543 47.636 35.7023 47.204 36.1583 46.928C36.6263 46.64 37.1843 46.496 37.8323 46.496C38.4083 46.496 38.9303 46.61 39.3983 46.838C39.8663 47.066 40.2623 47.39 40.5863 47.81C40.9223 48.23 41.1743 48.74 41.3423 49.34C41.5223 49.94 41.6123 50.612 41.6123 51.356C41.6123 52.1 41.5223 52.772 41.3423 53.372C41.1743 53.972 40.9223 54.482 40.5863 54.902C40.2623 55.322 39.8663 55.646 39.3983 55.874C38.9303 56.102 38.4083 56.216 37.8323 56.216C36.5723 56.216 35.6663 55.64 35.1143 54.488H35.0423V59.6H33.6023V46.712ZM37.4363 54.92C38.2523 54.92 38.8943 54.668 39.3623 54.164C39.8303 53.648 40.0643 52.976 40.0643 52.148V50.564C40.0643 49.736 39.8303 49.07 39.3623 48.566C38.8943 48.05 38.2523 47.792 37.4363 47.792C37.1123 47.792 36.8003 47.84 36.5003 47.936C36.2123 48.02 35.9603 48.14 35.7443 48.296C35.5283 48.452 35.3543 48.644 35.2223 48.872C35.1023 49.088 35.0423 49.322 35.0423 49.574V53.03C35.0423 53.33 35.1023 53.6 35.2223 53.84C35.3543 54.068 35.5283 54.266 35.7443 54.434C35.9603 54.59 36.2123 54.71 36.5003 54.794C36.8003 54.878 37.1123 54.92 37.4363 54.92ZM45.5737 56C45.0697 56 44.6857 55.862 44.4217 55.586C44.1697 55.298 44.0437 54.938 44.0437 54.506V42.68H45.4837V54.74H46.8517V56H45.5737ZM55.698 56C55.158 56 54.768 55.856 54.528 55.568C54.3 55.28 54.156 54.92 54.096 54.488H54.006C53.802 55.064 53.466 55.496 52.998 55.784C52.53 56.072 51.972 56.216 51.324 56.216C50.34 56.216 49.572 55.964 49.02 55.46C48.48 54.956 48.21 54.272 48.21 53.408C48.21 52.532 48.528 51.86 49.164 51.392C49.812 50.924 50.814 50.69 52.17 50.69H54.006V49.772C54.006 49.112 53.826 48.608 53.466 48.26C53.106 47.912 52.554 47.738 51.81 47.738C51.246 47.738 50.772 47.864 50.388 48.116C50.016 48.368 49.704 48.704 49.452 49.124L48.588 48.314C48.84 47.81 49.242 47.384 49.794 47.036C50.346 46.676 51.042 46.496 51.882 46.496C53.01 46.496 53.886 46.772 54.51 47.324C55.134 47.876 55.446 48.644 55.446 49.628V54.74H56.508V56H55.698ZM51.558 54.992C51.918 54.992 52.248 54.95 52.548 54.866C52.848 54.782 53.106 54.662 53.322 54.506C53.538 54.35 53.706 54.17 53.826 53.966C53.946 53.762 54.006 53.54 54.006 53.3V51.77H52.098C51.27 51.77 50.664 51.89 50.28 52.13C49.908 52.37 49.722 52.718 49.722 53.174V53.552C49.722 54.008 49.884 54.362 50.208 54.614C50.544 54.866 50.994 54.992 51.558 54.992ZM64.1993 46.712H65.6213L61.4633 58.16C61.3553 58.436 61.2473 58.664 61.1393 58.844C61.0313 59.036 60.8993 59.186 60.7433 59.294C60.5873 59.402 60.3893 59.48 60.1493 59.528C59.9213 59.576 59.6393 59.6 59.3033 59.6H58.5653V58.34H60.0233L60.7253 56.36L57.2513 46.712H58.6913L60.9233 53.03L61.3553 54.542H61.4453L61.9493 53.03L64.1993 46.712Z" fill="white"/>
</svg>
