<svg width="574" height="574" viewBox="0 0 574 574" fill="none" xmlns="http://www.w3.org/2000/svg">
<circle cx="287" cy="287" r="198.25" fill="black" stroke="black" stroke-width="1.5" stroke-dasharray="3 3"/>
<circle cx="287" cy="287" r="111.25" fill="black" stroke="white" stroke-width="1.5" stroke-dasharray="3 3"/>
<path d="M268.936 296.288C267.576 296.288 266.416 296.032 265.456 295.52C264.496 294.992 263.68 294.272 263.008 293.36L264.496 292.112C265.088 292.896 265.744 293.496 266.464 293.912C267.184 294.312 268.032 294.512 269.008 294.512C270.208 294.512 271.12 294.224 271.744 293.648C272.384 293.072 272.704 292.304 272.704 291.344C272.704 290.544 272.464 289.928 271.984 289.496C271.504 289.064 270.712 288.72 269.608 288.464L268.24 288.152C266.704 287.8 265.528 287.272 264.712 286.568C263.912 285.848 263.512 284.84 263.512 283.544C263.512 282.808 263.648 282.152 263.92 281.576C264.192 281 264.568 280.52 265.048 280.136C265.544 279.752 266.128 279.464 266.8 279.272C267.488 279.064 268.24 278.96 269.056 278.96C270.32 278.96 271.4 279.192 272.296 279.656C273.208 280.12 273.976 280.8 274.6 281.696L273.088 282.8C272.624 282.16 272.064 281.656 271.408 281.288C270.752 280.92 269.936 280.736 268.96 280.736C267.888 280.736 267.04 280.968 266.416 281.432C265.808 281.88 265.504 282.56 265.504 283.472C265.504 284.272 265.76 284.88 266.272 285.296C266.8 285.696 267.592 286.016 268.648 286.256L270.016 286.568C271.664 286.936 272.856 287.496 273.592 288.248C274.328 289 274.696 290 274.696 291.248C274.696 292.016 274.56 292.712 274.288 293.336C274.032 293.96 273.656 294.488 273.16 294.92C272.664 295.352 272.056 295.688 271.336 295.928C270.632 296.168 269.832 296.288 268.936 296.288Z" fill="white"/>
<path d="M283.073 296.288C282.209 296.288 281.433 296.136 280.745 295.832C280.057 295.528 279.473 295.096 278.993 294.536C278.529 293.976 278.169 293.296 277.913 292.496C277.673 291.696 277.553 290.8 277.553 289.808C277.553 288.816 277.673 287.92 277.913 287.12C278.169 286.32 278.529 285.64 278.993 285.08C279.473 284.52 280.057 284.088 280.745 283.784C281.433 283.48 282.209 283.328 283.073 283.328C284.305 283.328 285.289 283.6 286.025 284.144C286.777 284.672 287.337 285.368 287.705 286.232L286.097 287.048C285.873 286.408 285.505 285.912 284.993 285.56C284.481 285.208 283.841 285.032 283.073 285.032C282.497 285.032 281.993 285.128 281.561 285.32C281.129 285.496 280.769 285.752 280.481 286.088C280.193 286.408 279.977 286.8 279.833 287.264C279.689 287.712 279.617 288.208 279.617 288.752V290.864C279.617 291.952 279.905 292.848 280.481 293.552C281.073 294.24 281.937 294.584 283.073 294.584C284.625 294.584 285.745 293.864 286.433 292.424L287.825 293.36C287.425 294.256 286.825 294.968 286.025 295.496C285.241 296.024 284.257 296.288 283.073 296.288Z" fill="white"/>
<path d="M300.015 296C299.295 296 298.775 295.808 298.455 295.424C298.151 295.04 297.959 294.56 297.879 293.984H297.759C297.487 294.752 297.039 295.328 296.415 295.712C295.791 296.096 295.047 296.288 294.183 296.288C292.871 296.288 291.847 295.952 291.111 295.28C290.391 294.608 290.031 293.696 290.031 292.544C290.031 291.376 290.455 290.48 291.303 289.856C292.167 289.232 293.503 288.92 295.311 288.92H297.759V287.696C297.759 286.816 297.519 286.144 297.039 285.68C296.559 285.216 295.823 284.984 294.831 284.984C294.079 284.984 293.447 285.152 292.935 285.488C292.439 285.824 292.023 286.272 291.687 286.832L290.535 285.752C290.871 285.08 291.407 284.512 292.143 284.048C292.879 283.568 293.807 283.328 294.927 283.328C296.431 283.328 297.599 283.696 298.431 284.432C299.263 285.168 299.679 286.192 299.679 287.504V294.32H301.095V296H300.015ZM294.495 294.656C294.975 294.656 295.415 294.6 295.815 294.488C296.215 294.376 296.559 294.216 296.847 294.008C297.135 293.8 297.359 293.56 297.519 293.288C297.679 293.016 297.759 292.72 297.759 292.4V290.36H295.215C294.111 290.36 293.303 290.52 292.791 290.84C292.295 291.16 292.047 291.624 292.047 292.232V292.736C292.047 293.344 292.263 293.816 292.695 294.152C293.143 294.488 293.743 294.656 294.495 294.656Z" fill="white"/>
<path d="M306.356 296C305.684 296 305.172 295.816 304.82 295.448C304.484 295.064 304.316 294.584 304.316 294.008V278.24H306.236V294.32H308.06V296H306.356Z" fill="white"/>
<path d="M315.991 296.288C315.143 296.288 314.375 296.136 313.687 295.832C313.015 295.528 312.431 295.096 311.935 294.536C311.455 293.96 311.079 293.28 310.807 292.496C310.551 291.696 310.423 290.8 310.423 289.808C310.423 288.832 310.551 287.944 310.807 287.144C311.079 286.344 311.455 285.664 311.935 285.104C312.431 284.528 313.015 284.088 313.687 283.784C314.375 283.48 315.143 283.328 315.991 283.328C316.823 283.328 317.567 283.48 318.223 283.784C318.879 284.088 319.439 284.512 319.903 285.056C320.367 285.584 320.719 286.216 320.959 286.952C321.215 287.688 321.343 288.496 321.343 289.376V290.288H312.439V290.864C312.439 291.392 312.519 291.888 312.679 292.352C312.855 292.8 313.095 293.192 313.399 293.528C313.719 293.864 314.103 294.128 314.551 294.32C315.015 294.512 315.535 294.608 316.111 294.608C316.895 294.608 317.575 294.424 318.151 294.056C318.743 293.688 319.199 293.16 319.519 292.472L320.887 293.456C320.487 294.304 319.863 294.992 319.015 295.52C318.167 296.032 317.159 296.288 315.991 296.288ZM315.991 284.936C315.463 284.936 314.983 285.032 314.551 285.224C314.119 285.4 313.743 285.656 313.423 285.992C313.119 286.328 312.879 286.728 312.703 287.192C312.527 287.64 312.439 288.136 312.439 288.68V288.848H319.279V288.584C319.279 287.48 318.975 286.6 318.367 285.944C317.775 285.272 316.983 284.936 315.991 284.936Z" fill="white"/>
<circle cx="287" cy="287" r="286.25" stroke="black" stroke-width="1.5" stroke-dasharray="3 3"/>
</svg>
