<svg width="574" height="574" viewBox="0 0 574 574" fill="none" xmlns="http://www.w3.org/2000/svg">
<circle cx="287" cy="287" r="112" fill="black"/>
<path d="M277.288 281.888H277.168L275.752 284.696L271.744 291.992L267.736 284.696L266.32 281.888H266.2V296H264.232V279.248H266.92L271.72 288.272H271.84L276.664 279.248H279.256V296H277.288V281.888Z" fill="white"/>
<path d="M288.005 296L282.437 279.248H284.597L287.357 287.696L289.205 293.984H289.325L291.221 287.696L294.005 279.248H296.093L290.453 296H288.005Z" fill="white"/>
<path d="M299.294 296V279.248H305.966C307.47 279.248 308.622 279.68 309.422 280.544C310.238 281.392 310.646 282.56 310.646 284.048C310.646 285.536 310.238 286.712 309.422 287.576C308.622 288.424 307.47 288.848 305.966 288.848H301.31V296H299.294ZM301.31 287.072H305.966C306.766 287.072 307.382 286.864 307.814 286.448C308.262 286.032 308.486 285.44 308.486 284.672V283.424C308.486 282.656 308.262 282.064 307.814 281.648C307.382 281.232 306.766 281.024 305.966 281.024H301.31V287.072Z" fill="white"/>
<circle cx="287" cy="287" r="198.25" stroke="black" stroke-width="1.5" stroke-dasharray="3 3"/>
<circle cx="287" cy="287" r="286.25" stroke="black" stroke-width="1.5" stroke-dasharray="3 3"/>
</svg>
