<svg width="574" height="574" viewBox="0 0 574 574" fill="none" xmlns="http://www.w3.org/2000/svg">
<circle cx="287" cy="287" r="286.25" fill="black" stroke="black" stroke-width="1.5" stroke-dasharray="3 3"/>
<circle cx="287" cy="287" r="198.25" fill="black" stroke="white" stroke-width="1.5" stroke-dasharray="3 3"/>
<circle cx="287" cy="287" r="111.25" fill="black" stroke="white" stroke-width="1.5" stroke-dasharray="3 3"/>
<path d="M228.273 287.288C226.913 287.288 225.753 287.032 224.793 286.52C223.833 285.992 223.017 285.272 222.345 284.36L223.833 283.112C224.425 283.896 225.081 284.496 225.801 284.912C226.521 285.312 227.369 285.512 228.345 285.512C229.545 285.512 230.457 285.224 231.081 284.648C231.721 284.072 232.041 283.304 232.041 282.344C232.041 281.544 231.801 280.928 231.321 280.496C230.841 280.064 230.049 279.72 228.945 279.464L227.577 279.152C226.041 278.8 224.865 278.272 224.049 277.568C223.249 276.848 222.849 275.84 222.849 274.544C222.849 273.808 222.985 273.152 223.257 272.576C223.529 272 223.905 271.52 224.385 271.136C224.881 270.752 225.465 270.464 226.137 270.272C226.825 270.064 227.577 269.96 228.393 269.96C229.657 269.96 230.737 270.192 231.633 270.656C232.545 271.12 233.313 271.8 233.937 272.696L232.425 273.8C231.961 273.16 231.401 272.656 230.745 272.288C230.089 271.92 229.273 271.736 228.297 271.736C227.225 271.736 226.377 271.968 225.753 272.432C225.145 272.88 224.841 273.56 224.841 274.472C224.841 275.272 225.097 275.88 225.609 276.296C226.137 276.696 226.929 277.016 227.985 277.256L229.353 277.568C231.001 277.936 232.193 278.496 232.929 279.248C233.665 280 234.033 281 234.033 282.248C234.033 283.016 233.897 283.712 233.625 284.336C233.369 284.96 232.993 285.488 232.497 285.92C232.001 286.352 231.393 286.688 230.673 286.928C229.969 287.168 229.169 287.288 228.273 287.288Z" fill="white"/>
<path d="M245.434 284.984H245.338C245.21 285.272 245.05 285.56 244.858 285.848C244.682 286.12 244.458 286.368 244.186 286.592C243.914 286.8 243.586 286.968 243.202 287.096C242.818 287.224 242.37 287.288 241.858 287.288C240.578 287.288 239.562 286.88 238.81 286.064C238.058 285.232 237.682 284.064 237.682 282.56V274.616H239.602V282.224C239.602 284.448 240.546 285.56 242.434 285.56C242.818 285.56 243.186 285.512 243.538 285.416C243.906 285.32 244.226 285.176 244.498 284.984C244.786 284.792 245.01 284.552 245.17 284.264C245.346 283.96 245.434 283.6 245.434 283.184V274.616H247.354V287H245.434V284.984Z" fill="white"/>
<path d="M255.643 287.288C254.491 287.288 253.523 287.072 252.739 286.64C251.971 286.192 251.307 285.6 250.747 284.864L252.115 283.76C252.595 284.368 253.131 284.84 253.723 285.176C254.315 285.496 255.003 285.656 255.787 285.656C256.603 285.656 257.235 285.48 257.683 285.128C258.147 284.776 258.379 284.28 258.379 283.64C258.379 283.16 258.219 282.752 257.899 282.416C257.595 282.064 257.035 281.824 256.219 281.696L255.235 281.552C254.659 281.472 254.131 281.352 253.651 281.192C253.171 281.016 252.747 280.792 252.379 280.52C252.027 280.232 251.747 279.88 251.539 279.464C251.347 279.048 251.251 278.552 251.251 277.976C251.251 277.368 251.363 276.84 251.587 276.392C251.811 275.928 252.115 275.544 252.499 275.24C252.899 274.936 253.371 274.712 253.915 274.568C254.459 274.408 255.043 274.328 255.667 274.328C256.675 274.328 257.515 274.504 258.187 274.856C258.875 275.208 259.475 275.696 259.987 276.32L258.715 277.472C258.443 277.088 258.043 276.744 257.515 276.44C256.987 276.12 256.323 275.96 255.523 275.96C254.723 275.96 254.115 276.136 253.699 276.488C253.299 276.824 253.099 277.288 253.099 277.88C253.099 278.488 253.299 278.928 253.699 279.2C254.115 279.472 254.707 279.672 255.475 279.8L256.435 279.944C257.811 280.152 258.787 280.552 259.363 281.144C259.939 281.72 260.227 282.48 260.227 283.424C260.227 284.624 259.819 285.568 259.003 286.256C258.187 286.944 257.067 287.288 255.643 287.288Z" fill="white"/>
<path d="M266.67 287C265.998 287 265.486 286.816 265.134 286.448C264.798 286.064 264.63 285.568 264.63 284.96V276.296H262.59V274.616H263.742C264.158 274.616 264.438 274.536 264.582 274.376C264.742 274.2 264.822 273.904 264.822 273.488V271.184H266.55V274.616H269.262V276.296H266.55V285.32H269.07V287H266.67Z" fill="white"/>
<path d="M281.828 287C281.108 287 280.588 286.808 280.268 286.424C279.964 286.04 279.772 285.56 279.692 284.984H279.572C279.3 285.752 278.852 286.328 278.228 286.712C277.604 287.096 276.86 287.288 275.996 287.288C274.684 287.288 273.66 286.952 272.924 286.28C272.204 285.608 271.844 284.696 271.844 283.544C271.844 282.376 272.268 281.48 273.116 280.856C273.98 280.232 275.316 279.92 277.124 279.92H279.572V278.696C279.572 277.816 279.332 277.144 278.852 276.68C278.372 276.216 277.636 275.984 276.644 275.984C275.892 275.984 275.26 276.152 274.748 276.488C274.252 276.824 273.836 277.272 273.5 277.832L272.348 276.752C272.684 276.08 273.22 275.512 273.956 275.048C274.692 274.568 275.62 274.328 276.74 274.328C278.244 274.328 279.412 274.696 280.244 275.432C281.076 276.168 281.492 277.192 281.492 278.504V285.32H282.908V287H281.828ZM276.308 285.656C276.788 285.656 277.228 285.6 277.628 285.488C278.028 285.376 278.372 285.216 278.66 285.008C278.948 284.8 279.172 284.56 279.332 284.288C279.492 284.016 279.572 283.72 279.572 283.4V281.36H277.028C275.924 281.36 275.116 281.52 274.604 281.84C274.108 282.16 273.86 282.624 273.86 283.232V283.736C273.86 284.344 274.076 284.816 274.508 285.152C274.956 285.488 275.556 285.656 276.308 285.656Z" fill="white"/>
<path d="M287.088 271.712C286.672 271.712 286.368 271.616 286.176 271.424C286 271.216 285.912 270.952 285.912 270.632V270.32C285.912 270 286 269.744 286.176 269.552C286.368 269.344 286.672 269.24 287.088 269.24C287.504 269.24 287.8 269.344 287.976 269.552C288.168 269.744 288.264 270 288.264 270.32V270.632C288.264 270.952 288.168 271.216 287.976 271.424C287.8 271.616 287.504 271.712 287.088 271.712ZM286.128 274.616H288.048V287H286.128V274.616Z" fill="white"/>
<path d="M292.608 287V274.616H294.528V276.632H294.624C294.928 275.928 295.352 275.368 295.896 274.952C296.456 274.536 297.2 274.328 298.128 274.328C299.408 274.328 300.416 274.744 301.152 275.576C301.904 276.392 302.28 277.552 302.28 279.056V287H300.36V279.392C300.36 277.168 299.424 276.056 297.552 276.056C297.168 276.056 296.792 276.104 296.424 276.2C296.072 276.296 295.752 276.44 295.464 276.632C295.176 276.824 294.944 277.072 294.768 277.376C294.608 277.664 294.528 278.008 294.528 278.408V287H292.608Z" fill="white"/>
<path d="M321.881 287C321.161 287 320.641 286.808 320.321 286.424C320.017 286.04 319.825 285.56 319.745 284.984H319.625C319.353 285.752 318.905 286.328 318.281 286.712C317.657 287.096 316.913 287.288 316.049 287.288C314.737 287.288 313.713 286.952 312.977 286.28C312.257 285.608 311.897 284.696 311.897 283.544C311.897 282.376 312.321 281.48 313.169 280.856C314.033 280.232 315.369 279.92 317.177 279.92H319.625V278.696C319.625 277.816 319.385 277.144 318.905 276.68C318.425 276.216 317.689 275.984 316.697 275.984C315.945 275.984 315.313 276.152 314.801 276.488C314.305 276.824 313.889 277.272 313.553 277.832L312.401 276.752C312.737 276.08 313.273 275.512 314.009 275.048C314.745 274.568 315.673 274.328 316.793 274.328C318.297 274.328 319.465 274.696 320.297 275.432C321.129 276.168 321.545 277.192 321.545 278.504V285.32H322.961V287H321.881ZM316.361 285.656C316.841 285.656 317.281 285.6 317.681 285.488C318.081 285.376 318.425 285.216 318.713 285.008C319.001 284.8 319.225 284.56 319.385 284.288C319.545 284.016 319.625 283.72 319.625 283.4V281.36H317.081C315.977 281.36 315.169 281.52 314.657 281.84C314.161 282.16 313.913 282.624 313.913 283.232V283.736C313.913 284.344 314.129 284.816 314.561 285.152C315.009 285.488 315.609 285.656 316.361 285.656Z" fill="white"/>
<path d="M326.181 287V274.616H328.101V276.632H328.197C328.501 275.928 328.925 275.368 329.469 274.952C330.029 274.536 330.773 274.328 331.701 274.328C332.981 274.328 333.989 274.744 334.725 275.576C335.477 276.392 335.853 277.552 335.853 279.056V287H333.933V279.392C333.933 277.168 332.997 276.056 331.125 276.056C330.741 276.056 330.365 276.104 329.997 276.2C329.645 276.296 329.325 276.44 329.037 276.632C328.749 276.824 328.517 277.072 328.341 277.376C328.181 277.664 328.101 278.008 328.101 278.408V287H326.181Z" fill="white"/>
<path d="M348.222 284.984H348.126C347.374 286.52 346.166 287.288 344.502 287.288C343.734 287.288 343.038 287.136 342.414 286.832C341.79 286.528 341.254 286.096 340.806 285.536C340.374 284.976 340.038 284.296 339.798 283.496C339.574 282.696 339.462 281.8 339.462 280.808C339.462 279.816 339.574 278.92 339.798 278.12C340.038 277.32 340.374 276.64 340.806 276.08C341.254 275.52 341.79 275.088 342.414 274.784C343.038 274.48 343.734 274.328 344.502 274.328C345.366 274.328 346.102 274.52 346.71 274.904C347.334 275.272 347.806 275.848 348.126 276.632H348.222V269.24H350.142V287H348.222V284.984ZM345.03 285.56C345.462 285.56 345.87 285.504 346.254 285.392C346.654 285.28 346.998 285.12 347.286 284.912C347.574 284.688 347.798 284.424 347.958 284.12C348.134 283.8 348.222 283.44 348.222 283.04V278.432C348.222 278.096 348.134 277.784 347.958 277.496C347.798 277.192 347.574 276.936 347.286 276.728C346.998 276.52 346.654 276.36 346.254 276.248C345.87 276.12 345.462 276.056 345.03 276.056C343.942 276.056 343.086 276.4 342.462 277.088C341.838 277.76 341.526 278.648 341.526 279.752V281.864C341.526 282.968 341.838 283.864 342.462 284.552C343.086 285.224 343.942 285.56 345.03 285.56Z" fill="white"/>
<path d="M243.938 301.248V311.616C243.938 313.216 244.234 314.432 244.826 315.264C245.418 316.08 246.458 316.488 247.946 316.488C249.434 316.488 250.474 316.08 251.066 315.264C251.658 314.432 251.954 313.216 251.954 311.616V301.248H253.97V311.136C253.97 312.352 253.858 313.408 253.634 314.304C253.426 315.2 253.082 315.944 252.602 316.536C252.122 317.128 251.49 317.568 250.706 317.856C249.938 318.144 248.994 318.288 247.874 318.288C246.754 318.288 245.81 318.144 245.042 317.856C244.29 317.568 243.682 317.128 243.218 316.536C242.754 315.944 242.418 315.2 242.21 314.304C242.018 313.408 241.922 312.352 241.922 311.136V301.248H243.938Z" fill="white"/>
<path d="M258.596 305.616H260.516V307.632H260.612C260.932 306.848 261.396 306.272 262.004 305.904C262.628 305.52 263.372 305.328 264.236 305.328C265.004 305.328 265.7 305.48 266.324 305.784C266.948 306.088 267.476 306.52 267.908 307.08C268.356 307.64 268.692 308.32 268.916 309.12C269.156 309.92 269.276 310.816 269.276 311.808C269.276 312.8 269.156 313.696 268.916 314.496C268.692 315.296 268.356 315.976 267.908 316.536C267.476 317.096 266.948 317.528 266.324 317.832C265.7 318.136 265.004 318.288 264.236 318.288C262.556 318.288 261.348 317.52 260.612 315.984H260.516V322.8H258.596V305.616ZM263.708 316.56C264.796 316.56 265.652 316.224 266.276 315.552C266.9 314.864 267.212 313.968 267.212 312.864V310.752C267.212 309.648 266.9 308.76 266.276 308.088C265.652 307.4 264.796 307.056 263.708 307.056C263.276 307.056 262.86 307.12 262.46 307.248C262.076 307.36 261.74 307.52 261.452 307.728C261.164 307.936 260.932 308.192 260.756 308.496C260.596 308.784 260.516 309.096 260.516 309.432V314.04C260.516 314.44 260.596 314.8 260.756 315.12C260.932 315.424 261.164 315.688 261.452 315.912C261.74 316.12 262.076 316.28 262.46 316.392C262.86 316.504 263.276 316.56 263.708 316.56Z" fill="white"/>
<path d="M283.438 319.368C283.438 320.648 282.934 321.584 281.926 322.176C280.934 322.784 279.438 323.088 277.438 323.088C275.502 323.088 274.11 322.824 273.262 322.296C272.414 321.768 271.99 321.016 271.99 320.04C271.99 319.368 272.166 318.84 272.518 318.456C272.87 318.088 273.35 317.816 273.958 317.64V317.376C273.222 317.024 272.854 316.448 272.854 315.648C272.854 315.024 273.054 314.552 273.454 314.232C273.854 313.896 274.366 313.648 274.99 313.488V313.392C274.254 313.04 273.678 312.536 273.262 311.88C272.862 311.224 272.662 310.464 272.662 309.6C272.662 308.976 272.774 308.4 272.998 307.872C273.222 307.344 273.534 306.896 273.934 306.528C274.35 306.144 274.838 305.848 275.398 305.64C275.974 305.432 276.614 305.328 277.318 305.328C278.198 305.328 278.982 305.488 279.67 305.808V305.592C279.67 305.112 279.782 304.72 280.006 304.416C280.23 304.096 280.598 303.936 281.11 303.936H282.958V305.616H280.606V306.408C281.054 306.792 281.398 307.256 281.638 307.8C281.894 308.328 282.022 308.928 282.022 309.6C282.022 310.224 281.91 310.8 281.686 311.328C281.462 311.856 281.142 312.312 280.726 312.696C280.326 313.064 279.838 313.352 279.262 313.56C278.686 313.768 278.046 313.872 277.342 313.872C276.942 313.872 276.542 313.832 276.142 313.752C275.726 313.864 275.35 314.032 275.014 314.256C274.678 314.464 274.51 314.76 274.51 315.144C274.51 315.512 274.686 315.76 275.038 315.888C275.39 316.016 275.846 316.08 276.406 316.08H279.046C280.582 316.08 281.694 316.376 282.382 316.968C283.086 317.544 283.438 318.344 283.438 319.368ZM281.638 319.512C281.638 319.016 281.446 318.616 281.062 318.312C280.694 318.024 280.03 317.88 279.07 317.88H274.942C274.174 318.232 273.79 318.792 273.79 319.56C273.79 320.104 273.99 320.568 274.39 320.952C274.806 321.336 275.502 321.528 276.478 321.528H278.254C279.326 321.528 280.158 321.36 280.75 321.024C281.342 320.688 281.638 320.184 281.638 319.512ZM277.342 312.336C278.158 312.336 278.806 312.144 279.286 311.76C279.766 311.36 280.006 310.752 280.006 309.936V309.264C280.006 308.448 279.766 307.848 279.286 307.464C278.806 307.064 278.158 306.864 277.342 306.864C276.526 306.864 275.878 307.064 275.398 307.464C274.918 307.848 274.678 308.448 274.678 309.264V309.936C274.678 310.752 274.918 311.36 275.398 311.76C275.878 312.144 276.526 312.336 277.342 312.336Z" fill="white"/>
<path d="M286.157 318V305.616H288.077V307.896H288.197C288.421 307.304 288.821 306.776 289.397 306.312C289.973 305.848 290.765 305.616 291.773 305.616H292.517V307.536H291.389C290.349 307.536 289.533 307.736 288.941 308.136C288.365 308.52 288.077 309.008 288.077 309.6V318H286.157Z" fill="white"/>
<path d="M304.356 318C303.636 318 303.116 317.808 302.796 317.424C302.492 317.04 302.3 316.56 302.22 315.984H302.1C301.828 316.752 301.38 317.328 300.756 317.712C300.132 318.096 299.388 318.288 298.524 318.288C297.212 318.288 296.188 317.952 295.452 317.28C294.732 316.608 294.372 315.696 294.372 314.544C294.372 313.376 294.796 312.48 295.644 311.856C296.508 311.232 297.844 310.92 299.652 310.92H302.1V309.696C302.1 308.816 301.86 308.144 301.38 307.68C300.9 307.216 300.164 306.984 299.172 306.984C298.42 306.984 297.788 307.152 297.276 307.488C296.78 307.824 296.364 308.272 296.028 308.832L294.876 307.752C295.212 307.08 295.748 306.512 296.484 306.048C297.22 305.568 298.148 305.328 299.268 305.328C300.772 305.328 301.94 305.696 302.772 306.432C303.604 307.168 304.02 308.192 304.02 309.504V316.32H305.436V318H304.356ZM298.836 316.656C299.316 316.656 299.756 316.6 300.156 316.488C300.556 316.376 300.9 316.216 301.188 316.008C301.476 315.8 301.7 315.56 301.86 315.288C302.02 315.016 302.1 314.72 302.1 314.4V312.36H299.556C298.452 312.36 297.644 312.52 297.132 312.84C296.636 313.16 296.388 313.624 296.388 314.232V314.736C296.388 315.344 296.604 315.816 297.036 316.152C297.484 316.488 298.084 316.656 298.836 316.656Z" fill="white"/>
<path d="M316.576 315.984H316.48C315.728 317.52 314.52 318.288 312.856 318.288C312.088 318.288 311.392 318.136 310.768 317.832C310.144 317.528 309.608 317.096 309.16 316.536C308.728 315.976 308.392 315.296 308.152 314.496C307.928 313.696 307.816 312.8 307.816 311.808C307.816 310.816 307.928 309.92 308.152 309.12C308.392 308.32 308.728 307.64 309.16 307.08C309.608 306.52 310.144 306.088 310.768 305.784C311.392 305.48 312.088 305.328 312.856 305.328C313.72 305.328 314.456 305.52 315.064 305.904C315.688 306.272 316.16 306.848 316.48 307.632H316.576V300.24H318.496V318H316.576V315.984ZM313.384 316.56C313.816 316.56 314.224 316.504 314.608 316.392C315.008 316.28 315.352 316.12 315.64 315.912C315.928 315.688 316.152 315.424 316.312 315.12C316.488 314.8 316.576 314.44 316.576 314.04V309.432C316.576 309.096 316.488 308.784 316.312 308.496C316.152 308.192 315.928 307.936 315.64 307.728C315.352 307.52 315.008 307.36 314.608 307.248C314.224 307.12 313.816 307.056 313.384 307.056C312.296 307.056 311.44 307.4 310.816 308.088C310.192 308.76 309.88 309.648 309.88 310.752V312.864C309.88 313.968 310.192 314.864 310.816 315.552C311.44 316.224 312.296 316.56 313.384 316.56Z" fill="white"/>
<path d="M327.714 318.288C326.866 318.288 326.098 318.136 325.41 317.832C324.738 317.528 324.154 317.096 323.658 316.536C323.178 315.96 322.802 315.28 322.53 314.496C322.274 313.696 322.146 312.8 322.146 311.808C322.146 310.832 322.274 309.944 322.53 309.144C322.802 308.344 323.178 307.664 323.658 307.104C324.154 306.528 324.738 306.088 325.41 305.784C326.098 305.48 326.866 305.328 327.714 305.328C328.546 305.328 329.29 305.48 329.946 305.784C330.602 306.088 331.162 306.512 331.626 307.056C332.09 307.584 332.442 308.216 332.682 308.952C332.938 309.688 333.066 310.496 333.066 311.376V312.288H324.162V312.864C324.162 313.392 324.242 313.888 324.402 314.352C324.578 314.8 324.818 315.192 325.122 315.528C325.442 315.864 325.826 316.128 326.274 316.32C326.738 316.512 327.258 316.608 327.834 316.608C328.618 316.608 329.298 316.424 329.874 316.056C330.466 315.688 330.922 315.16 331.242 314.472L332.61 315.456C332.21 316.304 331.586 316.992 330.738 317.52C329.89 318.032 328.882 318.288 327.714 318.288ZM327.714 306.936C327.186 306.936 326.706 307.032 326.274 307.224C325.842 307.4 325.466 307.656 325.146 307.992C324.842 308.328 324.602 308.728 324.426 309.192C324.25 309.64 324.162 310.136 324.162 310.68V310.848H331.002V310.584C331.002 309.48 330.698 308.6 330.09 307.944C329.498 307.272 328.706 306.936 327.714 306.936Z" fill="white"/>
</svg>
