<svg xmlns="http://www.w3.org/2000/svg" width="40" height="48" viewBox="0 0 40 48">
  <defs>
    <style>
      .cls-1 {
        fill: #250f8d;
        fill-rule: evenodd;
      }
    </style>
  </defs>
  <path id="ios.svg" class="cls-1" d="M1780.56,2152.15a0.321,0.321,0,0,1-.05-0.03,9.456,9.456,0,0,1-5.83-8.68,9.72,9.72,0,0,1,4.69-8.15l0.04-.03a0.767,0.767,0,0,0,.24-1.06c-0.01-.01-0.01-0.02-0.02-0.03a11.747,11.747,0,0,0-9.22-4.94,7.322,7.322,0,0,0-.81-0.04,16.037,16.037,0,0,0-5.74,1.41,9.419,9.419,0,0,1-2.54.76,8.855,8.855,0,0,1-2.63-.77,14.014,14.014,0,0,0-5.04-1.26h-0.14a12.43,12.43,0,0,0-10.43,6.22c-4.14,7.06-1.53,17.76,3.03,24.23,2.3,3.28,4.64,6.22,7.93,6.22a1.34,1.34,0,0,0,.2-0.01,9.967,9.967,0,0,0,3.67-.95,9.5,9.5,0,0,1,4.03-.95,9.058,9.058,0,0,1,3.83.91,8.859,8.859,0,0,0,3.98.94c3.69-.07,5.9-3.25,7.85-6.05a26.006,26.006,0,0,0,3.35-6.76l0.02-.03A0.779,0.779,0,0,0,1780.56,2152.15Zm-0.36.75a25.352,25.352,0,0,1-3.25,6.55c-1.84,2.66-3.92,5.65-7.22,5.71a8.106,8.106,0,0,1-3.65-.87,9.6,9.6,0,0,0-4.14-.97,10.014,10.014,0,0,0-4.34,1.01,9.308,9.308,0,0,1-3.4.89,0.853,0.853,0,0,1-.16,0c-2.91,0-5.11-2.78-7.29-5.88-5.91-8.41-5.95-18.34-2.99-23.4h0a11.63,11.63,0,0,1,9.77-5.83h0.12a13.2,13.2,0,0,1,4.74,1.2,5.464,5.464,0,0,0,5.75.01,15.385,15.385,0,0,1,5.46-1.35c0.25,0,.5.01,0.74,0.03h0.03a11.057,11.057,0,0,1,8.62,4.6l-0.04.03a10.5,10.5,0,0,0-5.06,8.82,10.269,10.269,0,0,0,6.31,9.39l0.02,0.02Zm-19.32-22.65c0.18,0.01.36,0.02,0.54,0.02a9.734,9.734,0,0,0,7.13-3.6,10.911,10.911,0,0,0,2.63-7.99,0.778,0.778,0,0,0-.81-0.68h0a11.335,11.335,0,0,0-7.51,3.78,10.4,10.4,0,0,0-2.7,7.79,0.807,0.807,0,0,0,.72.68h0Zm2.57-7.97a10.6,10.6,0,0,1,6.95-3.52l-0.01-.38,0.01,0.38a10.08,10.08,0,0,1-2.46,7.42,8.872,8.872,0,0,1-6.52,3.31,3.854,3.854,0,0,1-.48-0.02,9.625,9.625,0,0,1,2.51-7.19h0Z" transform="translate(-1741 -2118)"/>
</svg>
