<svg width="33" height="40" viewBox="0 0 33 40" fill="none" xmlns="http://www.w3.org/2000/svg">
<path fill-rule="evenodd" clip-rule="evenodd" d="M23.0085 0C23.196 0 23.4539 0.0625099 23.6023 0.148461C23.7352 0.234412 23.9071 0.414128 23.9696 0.562589C24.0555 0.757933 24.0868 1.10955 24.0868 1.9925C24.079 3.02392 24.0555 3.25833 23.868 3.94594C23.743 4.37569 23.4929 5.0633 23.2976 5.46962C23.1022 5.87593 22.7428 6.50885 22.5006 6.87609C22.2584 7.24334 21.7895 7.80593 21.4692 8.12629C21.1488 8.44665 20.5862 8.91548 20.219 9.1577C19.8517 9.39993 19.2735 9.72811 18.9297 9.87657C18.5859 10.025 18.0233 10.2282 17.6795 10.3141C17.281 10.4235 16.7887 10.486 16.2965 10.4939C15.6401 10.5095 15.5151 10.486 15.3198 10.3454C15.2025 10.2516 15.0619 10.0407 15.0072 9.87657C14.9603 9.71248 14.9134 9.19677 14.9134 8.73576C14.9056 8.2435 14.9603 7.64184 15.0306 7.29022C15.101 6.95423 15.2572 6.39945 15.3823 6.05565C15.5073 5.71184 15.7886 5.11019 16.0074 4.72731C16.234 4.34444 16.5621 3.82873 16.7419 3.59432C16.9294 3.35991 17.2966 2.93797 17.5701 2.6723C17.8436 2.39882 18.3359 1.98469 18.6562 1.76591C18.9766 1.53931 19.4376 1.2502 19.672 1.11736C19.9064 0.984531 20.4221 0.750119 20.805 0.601658C21.1879 0.445383 21.7348 0.281295 22.0161 0.226598C22.2974 0.171902 22.5553 0.101579 22.5943 0.0625099C22.6412 0.031255 22.8209 0 23.0085 0ZM20.805 2.71137C20.4612 2.88327 19.8986 3.23489 19.5548 3.49274C19.211 3.7506 18.7265 4.20379 18.4843 4.50071C18.2421 4.79764 17.8827 5.32116 17.6795 5.66496C17.4842 6.00877 17.2263 6.61042 17.1013 6.9933C16.9763 7.37617 16.8591 7.88406 16.8278 8.10285C16.7887 8.47791 16.7965 8.51698 16.9372 8.51698C17.0231 8.51698 17.3982 8.40758 17.7811 8.26694C18.1561 8.12629 18.7265 7.83718 19.0469 7.62621C19.3673 7.41524 19.8205 7.06362 20.0549 6.84484C20.2815 6.62605 20.6565 6.16504 20.8831 5.82124C21.1175 5.47743 21.4223 4.93047 21.5707 4.61011C21.727 4.28974 21.8989 3.82873 21.9692 3.59432C22.0396 3.35991 22.1255 2.93797 22.1646 2.65667C22.2037 2.37538 22.2271 2.14096 22.2193 2.14096C22.2037 2.13315 22.0239 2.18785 21.813 2.26598C21.602 2.33631 21.1488 2.53947 20.805 2.71137ZM10.4127 10.5876C10.9206 10.6111 11.6082 10.7048 12.0927 10.8142C12.5459 10.9158 13.5304 11.2127 14.2805 11.4706C15.0697 11.7441 15.9292 11.9785 16.3121 12.0332C16.6793 12.0879 17.1872 12.1113 17.4451 12.08C17.7029 12.0488 18.4218 11.8534 19.0469 11.6347C19.672 11.4159 20.4456 11.158 20.7659 11.0564C21.0863 10.9549 21.6723 10.8064 22.0552 10.7361C22.5162 10.6423 23.1101 10.5954 23.7742 10.6032C24.4384 10.6032 25.0244 10.6501 25.4542 10.7439C25.8214 10.822 26.3449 10.9627 26.6262 11.0564C26.9075 11.1502 27.3998 11.3534 27.7202 11.5096C28.0405 11.6659 28.5719 11.9628 28.8922 12.1816C29.2126 12.3926 29.7439 12.7911 30.0643 13.0646C30.3846 13.3381 30.8691 13.8225 31.1426 14.1272C31.4864 14.5257 31.6427 14.7758 31.6739 14.9868C31.7052 15.1821 31.6817 15.3618 31.5958 15.5337C31.5176 15.6978 31.2442 15.9322 30.83 16.2057C30.4706 16.4401 29.9158 16.9089 29.5876 17.2449C29.2595 17.5809 28.8453 18.081 28.6656 18.3623C28.4859 18.6436 28.2359 19.1437 28.1108 19.4797C27.978 19.8078 27.8217 20.4095 27.7514 20.8002C27.6576 21.3159 27.6342 21.7691 27.6655 22.3473C27.6889 22.8005 27.7827 23.449 27.8764 23.7928C27.9624 24.1366 28.1499 24.6602 28.2906 24.9649C28.4312 25.2696 28.7047 25.7385 28.8922 26.0198C29.0798 26.3011 29.4704 26.7542 29.7517 27.0277C30.033 27.309 30.5019 27.6919 30.8066 27.8872C31.1113 28.0748 31.5958 28.3483 31.9005 28.4811C32.3146 28.6686 32.4865 28.8014 32.6272 29.0124C32.721 29.1687 32.7991 29.3875 32.7991 29.4969C32.7991 29.6063 32.5881 30.161 32.3303 30.7314C32.0646 31.294 31.6583 32.1145 31.4161 32.5442C31.1816 32.974 30.6581 33.8179 30.2596 34.4195C29.8689 35.0212 29.2829 35.8494 28.9625 36.2558C28.65 36.6621 28.1577 37.2403 27.8764 37.5372C27.5951 37.8341 27.1263 38.2795 26.8216 38.5217C26.5168 38.764 26.1027 39.0765 25.8839 39.2172C25.673 39.35 25.212 39.5766 24.8681 39.7094C24.3446 39.9048 24.0946 39.9517 23.3835 39.9907C22.7584 40.0142 22.3756 39.9907 21.9771 39.9048C21.6723 39.8344 21.2191 39.6938 20.9613 39.5844C20.7034 39.4828 20.1565 39.2562 19.7501 39.0843C19.3438 38.9124 18.7969 38.7249 18.539 38.6702C18.2655 38.6077 17.6326 38.5686 17.0153 38.5686C16.1715 38.5686 15.8355 38.6077 15.3354 38.7483C14.9916 38.8421 14.2883 39.1 13.7726 39.3187C13.2569 39.5297 12.5537 39.7798 12.2099 39.8657C11.6942 39.9985 11.4285 40.022 10.6471 39.9829C10.0064 39.9595 9.57665 39.897 9.27973 39.7876C9.04532 39.7094 8.639 39.5297 8.38115 39.4047C8.1233 39.2719 7.64666 38.9593 7.3263 38.7015C7.00593 38.4436 6.44334 37.9201 6.0761 37.5372C5.70885 37.1543 5.19315 36.5605 4.93529 36.2167C4.67744 35.8729 4.31019 35.365 4.11485 35.0837C3.91951 34.8024 3.54445 34.2242 3.28659 33.7944C3.02874 33.3647 2.62242 32.6302 2.38801 32.1535C2.14579 31.6769 1.7551 30.8018 1.52069 30.2001C1.28627 29.5984 0.965912 28.6842 0.817451 28.1685C0.66899 27.6528 0.458019 26.7699 0.348626 26.2151C0.239234 25.6603 0.1064 24.793 0.0595177 24.3007C0.0126352 23.8085 -0.0108061 22.8943 0.00482142 22.2692C0.0204489 21.6441 0.0907726 20.7845 0.161096 20.3548C0.223606 19.925 0.317371 19.4015 0.372067 19.1827C0.41895 18.9718 0.54397 18.4717 0.653362 18.0888C0.762754 17.7059 1.04405 17.0027 1.27065 16.5261C1.49725 16.0494 1.90356 15.3696 2.16141 15.0024C2.42708 14.6351 2.91153 14.0569 3.24752 13.7131C3.58351 13.3693 4.16955 12.8536 4.55242 12.5567C4.94311 12.2676 5.59165 11.8613 5.99796 11.6503C6.40427 11.4393 7.07626 11.1502 7.48257 11.0174C7.88889 10.8767 8.5218 10.7205 8.88904 10.6579C9.30317 10.5954 9.88139 10.5642 10.4127 10.5876ZM7.85763 12.8458C7.58415 12.9474 7.17002 13.1271 6.93561 13.2443C6.7012 13.3615 6.27926 13.6193 5.99796 13.8225C5.71667 14.0179 5.19315 14.4632 4.83371 14.807C4.47428 15.1508 3.98202 15.6978 3.7476 16.0182C3.50538 16.3385 3.16157 16.9011 2.97404 17.2684C2.78651 17.6356 2.5521 18.2138 2.45052 18.5576C2.34113 18.9014 2.20048 19.464 2.13797 19.8078C2.06765 20.1516 1.97388 20.8939 1.93482 21.4487C1.89575 22.066 1.88793 22.8786 1.93482 23.5194C1.97388 24.0976 2.05984 24.9102 2.13016 25.3165C2.20048 25.7228 2.35676 26.4651 2.48178 26.9574C2.6068 27.4497 2.8334 28.2076 2.98186 28.6374C3.13032 29.0671 3.38036 29.7157 3.53663 30.0829C3.69291 30.4501 4.02108 31.1299 4.27112 31.6066C4.52116 32.0832 4.92748 32.8021 5.17752 33.2084C5.43537 33.6147 5.94326 34.357 6.31832 34.8493C6.69338 35.3415 7.2716 36.0292 7.60759 36.373C7.9514 36.7168 8.49054 37.17 8.81091 37.3887C9.13127 37.5997 9.57665 37.8419 9.78762 37.9279C10.0689 38.0373 10.3658 38.0764 10.8815 38.0764C11.4676 38.0764 11.6942 38.0373 12.249 37.8419C12.6162 37.7091 13.21 37.4747 13.5773 37.3184C13.9445 37.17 14.5228 36.9668 14.8666 36.8809C15.2104 36.7949 15.8433 36.6855 16.273 36.6386C16.7028 36.5996 17.3201 36.5839 17.6404 36.6074C17.9608 36.6386 18.4218 36.6933 18.6562 36.7324C18.8906 36.7793 19.3126 36.8887 19.5939 36.9746C19.8752 37.0606 20.5393 37.3184 21.0785 37.5528C21.6645 37.8029 22.274 37.9982 22.6022 38.0529C22.9069 38.0998 23.3054 38.1154 23.5007 38.0842C23.6961 38.0529 24.0086 37.9748 24.204 37.9045C24.3993 37.8341 24.7822 37.6153 25.0635 37.4278C25.3448 37.2403 25.8136 36.8574 26.1105 36.5761C26.4075 36.2948 26.931 35.7088 27.2748 35.279C27.6186 34.8493 28.103 34.2007 28.3453 33.8335C28.5953 33.4663 28.9938 32.8333 29.2438 32.427C29.4939 32.0207 29.8846 31.3018 30.119 30.8252C30.5331 30.0126 30.5409 29.9579 30.4081 29.8641C30.3221 29.8094 30.0174 29.5984 29.7127 29.4031C29.4079 29.2078 28.9391 28.8483 28.6656 28.6061C28.3921 28.3639 27.9389 27.8716 27.6655 27.5044C27.392 27.1371 26.9779 26.4573 26.7434 25.9807C26.509 25.504 26.2277 24.8243 26.1262 24.457C26.0246 24.0898 25.8917 23.4256 25.8449 22.9724C25.7824 22.4723 25.7667 21.8628 25.798 21.4096C25.8292 21.0033 25.923 20.3782 26.009 20.0266C26.0871 19.6672 26.259 19.1046 26.3918 18.7764C26.5168 18.4404 26.7825 17.8857 26.9779 17.5418C27.181 17.198 27.5404 16.6745 27.7827 16.3776C28.0249 16.0807 28.4625 15.6431 28.7594 15.4009C29.0485 15.1587 29.2829 14.9477 29.2829 14.9242C29.2829 14.9008 29.1032 14.7211 28.8766 14.5257C28.65 14.3304 28.2359 14.0022 27.9546 13.8069C27.6733 13.6115 27.1107 13.2912 26.7044 13.1036C26.2981 12.9083 25.7198 12.6895 25.4151 12.6114C25.0088 12.502 24.5947 12.4629 23.8133 12.4707C23.2351 12.4707 22.5475 12.5176 22.2896 12.5723C22.0318 12.627 21.6489 12.7208 21.4301 12.7911C21.2191 12.8536 20.5628 13.0802 19.9846 13.2834C19.4063 13.4943 18.6875 13.7209 18.3827 13.7913C18.078 13.8616 17.492 13.9241 17.0544 13.9241C16.5856 13.9241 16.0074 13.8772 15.6089 13.7913C15.2416 13.7131 14.3274 13.4474 13.5773 13.1896C12.8272 12.9317 11.9989 12.6739 11.7411 12.6114C11.4832 12.5489 10.8894 12.4864 10.4127 12.4629C9.83451 12.4395 9.35787 12.4629 8.95155 12.5411C8.61556 12.6036 8.1233 12.7442 7.85763 12.8458Z" fill="black"/>
</svg>
