<svg width="1052" height="5070" viewBox="0 0 1052 5070" xmlns="http://www.w3.org/2000/svg">
    <path d="M1016.467 1C913.884 120.906 744.987 180.86 509.78 180.86c-235.209 0-352.813 117.604-352.813 352.812l-21.55 433.854c148.65 84.889 301 127.333 457.05 127.333 234.075 0 378-118.5 424 75s38.88 581.188 19.44 619.594c-19.44 38.407-577.237-117.741-727.44 0-100.135 78.494-160.605 202.63-181.408 372.406-19.939 230-19.939 358.667 0 386 29.908 41 161.017 248 331.611 208s327.797-238.25 465.797-177 138 230.5 115 353 40.533 488.656-128.059 578.597C742.816 3600.398 379.5 3476.258 248 3581.721c-131.5 105.464-187.87 169-212.592 249.279-24.723 80.28-34.214 225.912-34.214 386S254.5 4667.306 559 4604.153C863.5 4541 1030.934 4794 1016.467 5069" stroke="#00AEA9" stroke-width="2" fill="none" fill-rule="evenodd" stroke-dasharray="2"/>
</svg>
