<svg xmlns="http://www.w3.org/2000/svg" width="48" height="48" viewBox="0 0 48 48">
  <defs>
    <style>
      .cls-1 {
        fill: #250f8d;
        fill-rule: evenodd;
      }
    </style>
  </defs>
  <path id="web.svg" class="cls-1" d="M1644.89,2157.96l0.05-.05a23.954,23.954,0,0,0-.46-32.33l-0.06-.05a23.755,23.755,0,0,0-16.59-7.51l-0.48-.01c-0.24-.01-0.47-0.01-0.71,0l-0.47.01a23.765,23.765,0,0,0-16.55,7.47h0l-0.11.1a23.962,23.962,0,0,0-.45,32.32l0.04,0.05,0.03,0.03a23.725,23.725,0,0,0,17.04,7.99L1627,2166c0.12,0,.24,0,0.35-0.01l0.48-.01A23.781,23.781,0,0,0,1644.89,2157.96Zm-33.81-32.52a22.708,22.708,0,0,1,12.92-6.23l1.02-.14-0.74.71a30.314,30.314,0,0,0-6.55,9l-0.13.27-0.28-.1a29.7,29.7,0,0,1-6.19-2.99l-0.36-.23Zm-7.05,15.71a23.044,23.044,0,0,1,5.84-14.46l0.19-.21,0.24,0.15a30.765,30.765,0,0,0,6.56,3.23l0.33,0.11-0.13.33a30.293,30.293,0,0,0-2.28,10.87l-0.07.84h-10.68v-0.86Zm5.82,15.69-0.25.17-0.2-.23a22.852,22.852,0,0,1-5.37-13.93v-0.15h10.74l0.01,0.13a30.331,30.331,0,0,0,2,10.14l0.12,0.32-0.32.12a30.278,30.278,0,0,0-6.73,3.43h0Zm14.15,7.95a23.008,23.008,0,0,1-13.44-6.74l-0.28-.29,0.34-.22a29.282,29.282,0,0,1,6.37-3.21l0.3-.11,0.12,0.29a30.544,30.544,0,0,0,6.87,9.71l0.74,0.71Zm2.31-.15-0.37-.27a29.665,29.665,0,0,1-7.54-10.11l-0.16-.36,0.37-.11a29.576,29.576,0,0,1,7.54-1.18l0.16-.02v12.05Zm0-13.03-0.14-.01a30.737,30.737,0,0,0-8.02,1.28l-0.29.09-0.12-.29a29.555,29.555,0,0,1-1.96-9.83l0.01-.15h10.52v8.91Zm0-9.6-10.56-.01,0.03-.85a29.857,29.857,0,0,1,2.26-10.59l0.12-.27,0.29,0.08a30.083,30.083,0,0,0,7.72,1.19l0.14,0.85v9.6h0Zm0-11.65-0.16.2a30.144,30.144,0,0,1-7.19-1.09l-0.38-.11,0.18-.36a29.257,29.257,0,0,1,7.18-9.37l0.37-.24v10.97Zm17.12,27.69a23.008,23.008,0,0,1-13.44,6.74l-1.02.14,0.75-.71a30.672,30.672,0,0,0,6.86-9.71l0.13-.29,0.29,0.11a29.355,29.355,0,0,1,6.38,3.21l0.33,0.22Zm6.53-15.2a22.852,22.852,0,0,1-5.37,13.93l-0.2.23-0.24-.17a30.567,30.567,0,0,0-6.74-3.43l-0.31-.12,0.11-.32a30.592,30.592,0,0,0,2.01-10.14v-0.13h10.74v0.15Zm-6.27-16.22,0.24-.15,0.2,0.21a23.033,23.033,0,0,1,5.83,14.46l0.01,0.87-10.63-.01-0.12-.84a30.508,30.508,0,0,0-2.28-10.87l-0.14-.33,0.34-.11a30.923,30.923,0,0,0,6.55-3.23h0Zm-13.7-7.42a22.735,22.735,0,0,1,12.93,6.23l0.31,0.29-0.37.23a29.378,29.378,0,0,1-6.18,2.99l-0.29.1-0.12-.27a30.932,30.932,0,0,0-6.55-9l-0.75-.71Zm-2.99.18,1.06,0.24a29.685,29.685,0,0,1,7.19,9.37l0.17,0.36-0.39.11a30.062,30.062,0,0,1-7.18,1.09l-0.85-.2v-10.97h0Zm0,12.34,0.83-.17a30.15,30.15,0,0,0,7.72-1.19l0.29-.08,0.11,0.27a29.652,29.652,0,0,1,2.27,10.59V2142l-11.22.01v-10.28h0Zm0,10.97,11.21-.02,0.01,0.17a29.819,29.819,0,0,1-1.97,9.83l-0.11.29-0.3-.09a30.662,30.662,0,0,0-8.01-1.28l-0.83.01v-8.91Zm-0.01,9.85,0.86,0.06a30.016,30.016,0,0,1,7.53,1.18l0.37,0.11-0.15.35a29.349,29.349,0,0,1-7.52,10.04l-1.09.54v-12.28Z" transform="translate(-1603 -2118)"/>
</svg>
