<svg width="155" height="27" viewBox="0 0 155 27" fill="none" xmlns="http://www.w3.org/2000/svg">
<path d="M154.244 17.421C151.188 19.0096 149.171 20.059 146.288 20.059C141.859 20.059 138.765 17.2058 138.765 13.122C138.765 9.0792 141.912 6.25749 146.42 6.25749C148.814 6.25749 151.206 7.03364 153.948 8.69958L154.735 9.17833V2.41059L154.476 2.24375C152.213 0.778496 149.291 0.00476074 146.021 0.00476074C136.754 0.00476074 131.905 6.65887 131.905 13.2308C131.905 19.5319 136.188 26.3117 145.59 26.3117C148.972 26.3117 151.444 25.6322 154.712 23.8043L155 23.6447V17.0269L154.244 17.421Z" fill="black"/>
<path d="M70.4453 25.9877H77.1374V16.0694V10.1745V0.326355H70.4453V25.9877Z" fill="black"/>
<path d="M87.3452 9.95933H81.168L77.1621 15.5761H87.3452V16.067V25.9877H94.0373V0.326355H87.3452V9.95933Z" fill="black"/>
<path d="M58.2852 20.059C53.8558 20.059 50.7616 17.2059 50.7616 13.122C50.7616 9.07924 53.9093 6.25512 58.4167 6.25512C60.8109 6.25512 63.2029 7.03127 65.9448 8.69721L66.7317 9.17595V2.40579L66.4731 2.23895C64.2105 0.773697 61.288 -3.05176e-05 58.0177 -3.05176e-05C48.7508 -3.05176e-05 43.9023 6.65407 43.9023 13.226C43.9023 19.527 48.1846 26.3069 57.5875 26.3069C60.9692 26.3069 63.4414 25.6275 66.7094 23.7995L66.997 23.6399V17.0221L66.2391 17.4162C63.1873 19.0096 61.1676 20.059 58.2852 20.059Z" fill="black"/>
<path d="M0 5.9698H6.5985V25.9877H13.2906V5.9698H19.8869V0.326385H0V5.9698Z" fill="black"/>
<path d="M30.5847 15.6003H36.1265V9.95933H30.5847V5.96735H41.3875V0.326355H23.8926V25.9877H41.6194V20.3467H30.5847V15.6003Z" fill="black"/>
<path d="M97.751 5.96977H104.347V25.9877H111.042V5.96977H117.638V0.326355H97.751V5.96977Z" fill="black"/>
<path d="M128.726 0.326385H122.034V25.9877H128.726V0.326385Z" fill="black"/>
</svg>
